<svg width="61" height="61" viewBox="0 0 61 61" fill="none" xmlns="http://www.w3.org/2000/svg">
<path d="M54.3098 16.9036L44.9714 7.56516C43.9693 6.56301 42.6101 6.00001 41.1928 6H11.3438C8.39244 6 6 8.39244 6 11.3438V50.5312C6 53.4826 8.39244 55.875 11.3438 55.875H50.5312C53.4826 55.875 55.875 53.4826 55.875 50.5312V20.6822C55.875 19.2649 55.312 17.9057 54.3098 16.9036ZM30.9375 48.75C27.0025 48.75 23.8125 45.56 23.8125 41.625C23.8125 37.69 27.0025 34.5 30.9375 34.5C34.8725 34.5 38.0625 37.69 38.0625 41.625C38.0625 45.56 34.8725 48.75 30.9375 48.75ZM41.625 14.8484V26.0391C41.625 26.7768 41.0268 27.375 40.2891 27.375H14.4609C13.7232 27.375 13.125 26.7768 13.125 26.0391V14.4609C13.125 13.7232 13.7232 13.125 14.4609 13.125H39.9016C40.256 13.125 40.5958 13.2657 40.8463 13.5163L41.2337 13.9037C41.4842 14.1543 41.625 14.4941 41.625 14.8484Z" fill="#20C5FA"/>
</svg>
