<svg width="61" height="61" viewBox="0 0 61 61" fill="none" xmlns="http://www.w3.org/2000/svg">
<path d="M55.1077 5.05431L5.71866 21.5213C5.51644 21.5886 5.33947 21.7157 5.21126 21.886C5.08306 22.0562 5.00968 22.2614 5.00089 22.4743C4.9921 22.6873 5.04831 22.8978 5.16205 23.0781C5.27579 23.2583 5.44167 23.3996 5.63766 23.4833L23.7877 31.2623C23.8828 31.3035 23.9869 31.3193 24.09 31.3083C24.193 31.2972 24.2914 31.2597 24.3757 31.1993L42.1687 18.4853C42.7207 18.0953 43.3987 18.7733 43.0087 19.3253L30.2947 37.1183C30.2353 37.2025 30.1986 37.3005 30.1881 37.403C30.1776 37.5054 30.1936 37.6088 30.2347 37.7033L38.0107 55.8533C38.0941 56.0494 38.2352 56.2154 38.4152 56.3294C38.5952 56.4434 38.8057 56.4999 39.0186 56.4915C39.2315 56.483 39.4368 56.4099 39.6072 56.282C39.7776 56.1541 39.9051 55.9774 39.9727 55.7753L56.4397 6.38331C56.5016 6.19818 56.5108 5.99944 56.466 5.80941C56.4213 5.61938 56.3245 5.44558 56.1864 5.30754C56.0484 5.16949 55.8746 5.07267 55.6846 5.02794C55.4945 4.9832 55.2928 4.99233 55.1077 5.05431Z" fill="#D3D3D3"/>
</svg>
