<svg width="76" height="72" viewBox="0 0 76 72" fill="none" xmlns="http://www.w3.org/2000/svg">
<path d="M32.091 17.4021C28.6622 17.5341 25.5625 18.7579 23.9052 20.4171C23.7221 20.6001 23.5048 20.7452 23.2656 20.8441C23.0265 20.9431 22.7701 20.994 22.5113 20.9939C22.2525 20.9938 21.9962 20.9427 21.7571 20.8436C21.518 20.7445 21.3008 20.5992 21.1178 20.4161C20.9349 20.233 20.7897 20.0157 20.6908 19.7765C20.5918 19.5374 20.5409 19.281 20.541 19.0222C20.5411 18.7634 20.5922 18.5071 20.6913 18.268C20.7905 18.0289 20.9357 17.8117 21.1188 17.6287C23.6746 15.0729 27.8365 13.6225 31.9373 13.4629C36.0657 13.3033 40.5724 14.4324 43.7293 17.5893C44.0988 17.9591 44.3063 18.4605 44.3061 18.9832C44.3059 19.506 44.0981 20.0072 43.7283 20.3767C43.3586 20.7462 42.8572 20.9537 42.3344 20.9535C41.8117 20.9533 41.3104 20.7455 40.9409 20.3757C38.793 18.2258 35.4942 17.2681 32.091 17.4001" fill="url(#paint0_linear_159_2215)"/>
<path fill-rule="evenodd" clip-rule="evenodd" d="M52.1681 46.1098C56.0751 41.4922 58.215 35.637 58.206 29.5883C58.206 15.4395 46.7372 3.9707 32.5883 3.9707C18.4395 3.9707 6.9707 15.4395 6.9707 29.5883C6.9707 43.7372 18.4395 55.206 32.5883 55.206C38.8844 55.206 44.6483 52.9359 49.1098 49.1681L48.3531 53.5192L63.1601 68.3262L71.3262 60.1601L56.5192 45.3531L52.1681 46.1098ZM32.5883 49.2942C43.4719 49.2942 52.2942 40.4719 52.2942 29.5883C52.2942 18.7048 43.4719 9.88247 32.5883 9.88247C21.7048 9.88247 12.8825 18.7048 12.8825 29.5883C12.8825 40.4719 21.7048 49.2942 32.5883 49.2942Z" fill="url(#paint1_linear_159_2215)"/>
<defs>
<linearGradient id="paint0_linear_159_2215" x1="20.9995" y1="13" x2="43.9995" y2="21" gradientUnits="userSpaceOnUse">
<stop stop-color="#ADD8E6"/>
<stop offset="1" stop-color="#9CE7FF"/>
</linearGradient>
<linearGradient id="paint1_linear_159_2215" x1="7" y1="4" x2="71" y2="68" gradientUnits="userSpaceOnUse">
<stop stop-color="#00C0FF"/>
<stop offset="0.735" stop-color="#ADD8E6"/>
</linearGradient>
</defs>
</svg>
