<svg width="76" height="72" viewBox="0 0 76 72" fill="none" xmlns="http://www.w3.org/2000/svg">
<path d="M37.3995 47.8838L31.3438 41.5529L51.4338 23.942L55.0134 27.7937L37.3995 47.8838ZM63.5423 65.7728C69.8731 59.442 74 50.635 74 40.7275C74 21.1907 58.0398 5.22754 38.5 5.22754C18.9602 5.22754 3 21.1907 3 40.7275C3 50.638 6.85175 59.442 13.4577 65.7728L18.41 60.8176C13.1826 55.5902 10.1562 48.7091 10.1562 40.7305C10.1511 37.0066 10.8808 33.3184 12.3033 29.8769C13.7259 26.4355 15.8134 23.3085 18.4463 20.675C21.0792 18.0416 24.2057 15.9534 27.6469 14.5302C31.088 13.1069 34.7761 12.3765 38.5 12.3808C42.2234 12.3765 45.911 13.1067 49.3518 14.5296C52.7925 15.9525 55.9188 18.0401 58.5516 20.6729C61.1845 23.3058 63.2721 26.4321 64.695 29.8728C66.1179 33.3136 66.8481 37.0012 66.8438 40.7246C66.8438 48.431 63.5423 55.5872 58.59 60.8146L63.5423 65.7728Z" fill="url(#paint0_linear_159_2213)"/>
<defs>
<linearGradient id="paint0_linear_159_2213" x1="3" y1="5" x2="74" y2="66" gradientUnits="userSpaceOnUse">
<stop stop-color="#FFD700"/>
<stop offset="1" stop-color="#FFA500"/>
</linearGradient>
</defs>
</svg>
