<svg width="76" height="72" viewBox="0 0 76 72" fill="none" xmlns="http://www.w3.org/2000/svg">
<g clip-path="url(#clip0_159_2221)">
<path d="M34.5743 52.0914C34.5743 51.0547 34.9881 50.0605 35.7248 49.3275C36.4615 48.5945 37.4607 48.1827 38.5025 48.1827H62.0718C63.1136 48.1827 64.1128 48.5945 64.8495 49.3275C65.5861 50.0605 66 51.0547 66 52.0914C66 53.128 65.5861 54.1222 64.8495 54.8552C64.1128 55.5882 63.1136 56 62.0718 56H38.5025C37.4607 56 36.4615 55.5882 35.7248 54.8552C34.9881 54.1222 34.5743 53.128 34.5743 52.0914ZM17.7144 14.1463C17.3491 13.7829 16.9155 13.4946 16.4383 13.2979C15.9611 13.1012 15.4497 13 14.9332 13C14.4167 13 13.9052 13.1012 13.428 13.2979C12.9508 13.4946 12.5172 13.7829 12.152 14.1463C11.7868 14.5097 11.4971 14.9411 11.2994 15.4159C11.1017 15.8907 11 16.3996 11 16.9136C11 17.4275 11.1017 17.9364 11.2994 18.4112C11.4971 18.8861 11.7868 19.3175 12.152 19.6809L25.0916 32.5481L12.152 45.4154C11.7868 45.7788 11.4971 46.2102 11.2994 46.6851C11.1017 47.1599 11 47.6688 11 48.1827C11 48.6967 11.1017 49.2056 11.2994 49.6804C11.4971 50.1552 11.7868 50.5866 12.152 50.95C12.8896 51.684 13.89 52.0963 14.9332 52.0963C15.4497 52.0963 15.9611 51.9951 16.4383 51.7984C16.9155 51.6017 17.3491 51.3134 17.7144 50.95L33.4272 35.3155C33.793 34.9524 34.0833 34.5211 34.2813 34.0462C34.4794 33.5713 34.5813 33.0623 34.5813 32.5481C34.5813 32.034 34.4794 31.525 34.2813 31.0501C34.0833 30.5752 33.793 30.1439 33.4272 29.7808L17.7144 14.1463Z" fill="url(#paint0_linear_159_2221)"/>
</g>
<defs>
<linearGradient id="paint0_linear_159_2221" x1="11" y1="13" x2="66" y2="56" gradientUnits="userSpaceOnUse">
<stop stop-color="#93EB7F"/>
<stop offset="1" stop-color="#3CDC79"/>
</linearGradient>
<clipPath id="clip0_159_2221">
<rect width="76" height="72" fill="white"/>
</clipPath>
</defs>
</svg>
